<?xml version="1.0" standalone="no"?>
<!DOCTYPE svg PUBLIC "-//W3C//DTD SVG 20010904//EN"
 "http://www.w3.org/TR/2001/REC-SVG-20010904/DTD/svg10.dtd">
<svg version="1.0" xmlns="http://www.w3.org/2000/svg"
 width="700.000000pt" height="700.000000pt" viewBox="0 0 700.000000 700.000000"
 preserveAspectRatio="xMidYMid meet">
<metadata>
Created by potrace 1.14, written by Peter Selinger 2001-2017
</metadata>
<g transform="translate(0.000000,700.000000) scale(0.100000,-0.100000)"
fill="#000000" stroke="none">
<path d="M3697 5763 c-2 -5 -3 -955 -3 -2113 l1 -2105 275 0 275 0 0 300 0
300 24 0 c20 0 27 -11 50 -75 65 -175 138 -278 291 -404 77 -63 271 -142 405
-165 579 -98 1056 113 1288 568 50 97 98 228 128 341 12 49 13 54 24 118 4 23
9 54 12 70 10 49 12 1115 2 1192 -97 783 -598 1213 -1334 1145 -397 -36 -692
-246 -814 -580 -22 -61 -33 -79 -50 -82 -20 -3 -23 0 -24 30 -1 15 13 207 20
267 2 25 6 305 7 623 l2 577 -287 0 c-158 0 -289 -3 -292 -7z m1533 -1327
c307 -48 523 -223 614 -497 52 -157 56 -201 52 -754 -1 -280 -6 -523 -10 -540
-4 -16 -12 -50 -17 -75 -30 -132 -105 -267 -208 -370 -150 -151 -334 -223
-576 -223 -162 -1 -247 15 -376 72 -202 88 -361 302 -410 551 -20 103 -23 184
-23 610 0 474 3 521 38 675 17 73 80 205 129 269 119 154 275 247 471 280 75
13 240 13 316 2z"/>
<path d="M1698 5025 c-2 -2 -39 -6 -84 -9 -44 -4 -90 -8 -101 -10 -11 -3 -38
-7 -59 -10 -22 -4 -46 -8 -54 -11 -8 -2 -26 -6 -40 -9 -110 -18 -313 -104
-421 -176 -87 -59 -205 -182 -255 -267 -127 -213 -163 -518 -95 -786 73 -285
293 -500 631 -619 66 -23 233 -66 286 -73 22 -3 50 -8 64 -10 14 -3 43 -7 65
-11 22 -3 67 -9 100 -14 33 -5 80 -12 105 -15 25 -3 56 -8 70 -10 14 -2 45 -6
70 -10 25 -3 56 -8 70 -10 14 -3 43 -7 65 -10 22 -3 51 -7 65 -10 14 -3 41 -8
60 -11 19 -3 38 -8 41 -10 3 -2 21 -6 40 -9 97 -17 235 -84 295 -143 75 -75
100 -141 102 -261 2 -201 -95 -353 -283 -446 -133 -66 -270 -88 -540 -88 -267
0 -387 22 -541 97 -134 67 -229 165 -264 274 l-13 42 -302 0 c-166 0 -304 -2
-307 -5 -9 -9 30 -159 62 -243 144 -375 571 -633 1105 -669 228 -15 582 -4
723 22 42 8 88 16 102 19 14 2 64 16 111 30 336 99 585 323 683 616 61 183 69
462 19 640 -66 232 -260 439 -518 550 -158 69 -393 129 -610 155 -27 3 -75 10
-105 15 -30 5 -73 12 -95 15 -22 3 -56 7 -75 10 -19 3 -53 8 -75 11 -22 2 -71
10 -110 16 -38 5 -77 11 -85 12 -57 8 -176 44 -235 71 -145 67 -214 165 -220
313 -12 304 156 477 511 526 91 12 474 14 524 2 14 -4 41 -9 59 -12 110 -18
261 -96 338 -173 43 -44 103 -142 103 -170 0 -8 96 -11 305 -11 349 0 318 -12
286 105 -93 331 -392 606 -781 718 -86 25 -98 28 -225 48 -58 9 -559 21 -567
14z"/>
</g>
</svg>
